<svg viewBox="0 0 12 13" fill="none" xmlns="http://www.w3.org/2000/svg">
<path d="M8 11V10C8 9.46957 7.78929 8.96086 7.41421 8.58579C7.03914 8.21071 6.53043 8 6 8H3C2.46957 8 1.96086 8.21071 1.58579 8.58579C1.21071 8.96086 1 9.46957 1 10V11" stroke="currentColor" stroke-linecap="round" stroke-linejoin="round"/>
<path d="M4.5 6C5.60457 6 6.5 5.10457 6.5 4C6.5 2.89543 5.60457 2 4.5 2C3.39543 2 2.5 2.89543 2.5 4C2.5 5.10457 3.39543 6 4.5 6Z" stroke="currentColor" stroke-linecap="round" stroke-linejoin="round"/>
<path d="M11 10.9999V9.99994C10.9997 9.55681 10.8522 9.12633 10.5807 8.7761C10.3092 8.42587 9.92906 8.17573 9.5 8.06494" stroke="currentColor" stroke-linecap="round" stroke-linejoin="round"/>
<path d="M8 2.06494C8.43021 2.17509 8.81152 2.42529 9.08382 2.7761C9.35612 3.1269 9.50392 3.55836 9.50392 4.00244C9.50392 4.44653 9.35612 4.87798 9.08382 5.22879C8.81152 5.57959 8.43021 5.82979 8 5.93994" stroke="currentColor" stroke-linecap="round" stroke-linejoin="round"/>
</svg>
